<svg width="225" height="70" viewBox="0 0 225 70" fill="none" xmlns="http://www.w3.org/2000/svg">
<rect width="70" height="70" fill="#A259FF"/>
<path d="M70.5 51.5L52 70H70.5V51.5Z" fill="#232232"/>
<path d="M89.152 47.288C87.4 47.288 85.852 46.916 84.508 46.172C83.188 45.428 82.168 44.372 81.448 43.004C80.728 41.636 80.368 40.04 80.368 38.216C80.368 36.392 80.74 34.784 81.484 33.392C82.252 31.976 83.32 30.884 84.688 30.116C86.056 29.348 87.628 28.964 89.404 28.964C90.34 28.964 91.276 29.096 92.212 29.36C93.172 29.624 94.012 29.984 94.732 30.44C95.5 30.944 95.884 31.58 95.884 32.348C95.884 32.876 95.752 33.308 95.488 33.644C95.248 33.956 94.924 34.112 94.516 34.112C94.252 34.112 93.976 34.052 93.688 33.932C93.4 33.812 93.112 33.668 92.824 33.5C92.296 33.188 91.792 32.948 91.312 32.78C90.832 32.588 90.28 32.492 89.656 32.492C88.168 32.492 87.016 32.984 86.2 33.968C85.408 34.928 85.012 36.32 85.012 38.144C85.012 39.944 85.408 41.336 86.2 42.32C87.016 43.28 88.168 43.76 89.656 43.76C90.256 43.76 90.784 43.676 91.24 43.508C91.72 43.316 92.248 43.064 92.824 42.752C93.184 42.536 93.496 42.38 93.76 42.284C94.024 42.164 94.288 42.104 94.552 42.104C94.936 42.104 95.26 42.272 95.524 42.608C95.788 42.944 95.92 43.364 95.92 43.868C95.92 44.276 95.824 44.636 95.632 44.948C95.464 45.236 95.176 45.5 94.768 45.74C94.024 46.22 93.16 46.604 92.176 46.892C91.192 47.156 90.184 47.288 89.152 47.288ZM109.214 28.964C113.342 28.964 115.406 31.376 115.406 36.2V45.056C115.406 45.728 115.202 46.256 114.794 46.64C114.41 47.024 113.87 47.216 113.174 47.216C112.478 47.216 111.926 47.024 111.518 46.64C111.11 46.256 110.906 45.728 110.906 45.056V36.2C110.906 34.928 110.642 34.004 110.114 33.428C109.61 32.828 108.806 32.528 107.702 32.528C106.406 32.528 105.362 32.936 104.57 33.752C103.802 34.568 103.418 35.66 103.418 37.028V45.056C103.418 45.728 103.214 46.256 102.806 46.64C102.398 47.024 101.846 47.216 101.15 47.216C100.454 47.216 99.9021 47.024 99.4941 46.64C99.1101 46.256 98.9181 45.728 98.9181 45.056V23.528C98.9181 22.904 99.1221 22.4 99.5301 22.016C99.9621 21.632 100.514 21.44 101.186 21.44C101.858 21.44 102.398 21.62 102.806 21.98C103.214 22.34 103.418 22.832 103.418 23.456V31.844C104.018 30.908 104.81 30.2 105.794 29.72C106.802 29.216 107.942 28.964 109.214 28.964ZM127.609 28.964C130.057 28.964 131.869 29.576 133.045 30.8C134.245 32 134.845 33.836 134.845 36.308V45.092C134.845 45.74 134.653 46.256 134.269 46.64C133.885 47 133.357 47.18 132.685 47.18C132.061 47.18 131.545 46.988 131.137 46.604C130.753 46.22 130.561 45.716 130.561 45.092V44.3C130.153 45.236 129.505 45.968 128.617 46.496C127.753 47.024 126.745 47.288 125.593 47.288C124.417 47.288 123.349 47.048 122.389 46.568C121.429 46.088 120.673 45.428 120.121 44.588C119.569 43.748 119.293 42.812 119.293 41.78C119.293 40.484 119.617 39.464 120.265 38.72C120.937 37.976 122.017 37.436 123.505 37.1C124.993 36.764 127.045 36.596 129.661 36.596H130.561V35.768C130.561 34.592 130.309 33.74 129.805 33.212C129.301 32.66 128.485 32.384 127.357 32.384C126.661 32.384 125.953 32.492 125.233 32.708C124.513 32.9 123.661 33.188 122.677 33.572C122.053 33.884 121.597 34.04 121.309 34.04C120.877 34.04 120.517 33.884 120.229 33.572C119.965 33.26 119.833 32.852 119.833 32.348C119.833 31.94 119.929 31.592 120.121 31.304C120.337 30.992 120.685 30.704 121.165 30.44C122.005 29.984 123.001 29.624 124.153 29.36C125.329 29.096 126.481 28.964 127.609 28.964ZM126.493 44.048C127.693 44.048 128.665 43.652 129.409 42.86C130.177 42.044 130.561 41 130.561 39.728V38.972H129.913C128.305 38.972 127.057 39.044 126.169 39.188C125.281 39.332 124.645 39.584 124.261 39.944C123.877 40.304 123.685 40.796 123.685 41.42C123.685 42.188 123.949 42.824 124.477 43.328C125.029 43.808 125.701 44.048 126.493 44.048ZM149.642 28.964C151.754 28.964 153.326 29.564 154.358 30.764C155.39 31.964 155.906 33.776 155.906 36.2V45.056C155.906 45.728 155.702 46.256 155.294 46.64C154.91 47.024 154.37 47.216 153.674 47.216C152.978 47.216 152.426 47.024 152.018 46.64C151.61 46.256 151.406 45.728 151.406 45.056V36.452C151.406 35.084 151.142 34.088 150.614 33.464C150.11 32.84 149.306 32.528 148.202 32.528C146.906 32.528 145.862 32.936 145.07 33.752C144.302 34.568 143.918 35.66 143.918 37.028V45.056C143.918 45.728 143.714 46.256 143.306 46.64C142.898 47.024 142.346 47.216 141.65 47.216C140.954 47.216 140.402 47.024 139.994 46.64C139.61 46.256 139.418 45.728 139.418 45.056V31.124C139.418 30.5 139.622 29.996 140.03 29.612C140.438 29.228 140.99 29.036 141.686 29.036C142.31 29.036 142.814 29.228 143.198 29.612C143.606 29.972 143.81 30.452 143.81 31.052V32.024C144.41 31.04 145.214 30.284 146.222 29.756C147.23 29.228 148.37 28.964 149.642 28.964ZM170.701 28.964C172.813 28.964 174.385 29.564 175.417 30.764C176.449 31.964 176.965 33.776 176.965 36.2V45.056C176.965 45.728 176.761 46.256 176.353 46.64C175.969 47.024 175.429 47.216 174.733 47.216C174.037 47.216 173.485 47.024 173.077 46.64C172.669 46.256 172.465 45.728 172.465 45.056V36.452C172.465 35.084 172.201 34.088 171.673 33.464C171.169 32.84 170.365 32.528 169.261 32.528C167.965 32.528 166.921 32.936 166.129 33.752C165.361 34.568 164.977 35.66 164.977 37.028V45.056C164.977 45.728 164.773 46.256 164.365 46.64C163.957 47.024 163.405 47.216 162.709 47.216C162.013 47.216 161.461 47.024 161.053 46.64C160.669 46.256 160.477 45.728 160.477 45.056V31.124C160.477 30.5 160.681 29.996 161.089 29.612C161.497 29.228 162.049 29.036 162.745 29.036C163.369 29.036 163.873 29.228 164.257 29.612C164.665 29.972 164.869 30.452 164.869 31.052V32.024C165.469 31.04 166.273 30.284 167.281 29.756C168.289 29.228 169.429 28.964 170.701 28.964ZM195.467 42.176C195.875 42.176 196.199 42.332 196.439 42.644C196.703 42.956 196.835 43.376 196.835 43.904C196.835 44.648 196.391 45.272 195.503 45.776C194.687 46.232 193.763 46.604 192.731 46.892C191.699 47.156 190.715 47.288 189.779 47.288C186.947 47.288 184.703 46.472 183.047 44.84C181.391 43.208 180.563 40.976 180.563 38.144C180.563 36.344 180.923 34.748 181.643 33.356C182.363 31.964 183.371 30.884 184.667 30.116C185.987 29.348 187.475 28.964 189.131 28.964C190.715 28.964 192.095 29.312 193.271 30.008C194.447 30.704 195.359 31.688 196.007 32.96C196.655 34.232 196.979 35.732 196.979 37.46C196.979 38.492 196.523 39.008 195.611 39.008H184.991C185.135 40.664 185.603 41.888 186.395 42.68C187.187 43.448 188.339 43.832 189.851 43.832C190.619 43.832 191.291 43.736 191.867 43.544C192.467 43.352 193.139 43.088 193.883 42.752C194.603 42.368 195.131 42.176 195.467 42.176ZM189.239 32.132C188.015 32.132 187.031 32.516 186.287 33.284C185.567 34.052 185.135 35.156 184.991 36.596H193.127C193.079 35.132 192.719 34.028 192.047 33.284C191.375 32.516 190.439 32.132 189.239 32.132ZM202.892 47.216C202.244 47.216 201.704 47.036 201.272 46.676C200.864 46.292 200.66 45.752 200.66 45.056V23.564C200.66 22.868 200.864 22.34 201.272 21.98C201.704 21.62 202.244 21.44 202.892 21.44C203.54 21.44 204.08 21.62 204.512 21.98C204.944 22.34 205.16 22.868 205.16 23.564V45.056C205.16 45.752 204.944 46.292 204.512 46.676C204.08 47.036 203.54 47.216 202.892 47.216ZM216.173 47.288C213.557 47.288 211.445 46.772 209.837 45.74C209.069 45.284 208.685 44.636 208.685 43.796C208.685 43.316 208.817 42.932 209.081 42.644C209.345 42.332 209.669 42.176 210.053 42.176C210.461 42.176 211.025 42.368 211.745 42.752C212.513 43.112 213.209 43.388 213.833 43.58C214.481 43.772 215.297 43.868 216.281 43.868C217.289 43.868 218.069 43.7 218.621 43.364C219.197 43.028 219.485 42.56 219.485 41.96C219.485 41.552 219.365 41.228 219.125 40.988C218.909 40.748 218.501 40.532 217.901 40.34C217.325 40.124 216.437 39.884 215.237 39.62C213.101 39.188 211.565 38.576 210.629 37.784C209.717 36.992 209.261 35.9 209.261 34.508C209.261 33.452 209.573 32.504 210.197 31.664C210.821 30.8 211.673 30.14 212.753 29.684C213.857 29.204 215.105 28.964 216.497 28.964C217.505 28.964 218.477 29.096 219.413 29.36C220.349 29.6 221.189 29.96 221.933 30.44C222.701 30.92 223.085 31.556 223.085 32.348C223.085 32.828 222.953 33.236 222.689 33.572C222.425 33.884 222.101 34.04 221.717 34.04C221.453 34.04 221.189 33.992 220.925 33.896C220.685 33.776 220.373 33.608 219.989 33.392C219.293 33.032 218.693 32.768 218.189 32.6C217.685 32.408 217.061 32.312 216.317 32.312C215.429 32.312 214.721 32.492 214.193 32.852C213.689 33.212 213.437 33.704 213.437 34.328C213.437 34.928 213.701 35.384 214.229 35.696C214.757 36.008 215.777 36.32 217.289 36.632C218.897 36.968 220.157 37.352 221.069 37.784C221.981 38.216 222.629 38.756 223.013 39.404C223.421 40.052 223.625 40.88 223.625 41.888C223.625 43.52 222.941 44.828 221.573 45.812C220.229 46.796 218.429 47.288 216.173 47.288Z" fill="white"/>
<path d="M23.972 28.964C26.42 28.964 28.232 29.576 29.408 30.8C30.608 32 31.208 33.836 31.208 36.308V45.092C31.208 45.74 31.016 46.256 30.632 46.64C30.248 47 29.72 47.18 29.048 47.18C28.424 47.18 27.908 46.988 27.5 46.604C27.116 46.22 26.924 45.716 26.924 45.092V44.3C26.516 45.236 25.868 45.968 24.98 46.496C24.116 47.024 23.108 47.288 21.956 47.288C20.78 47.288 19.712 47.048 18.752 46.568C17.792 46.088 17.036 45.428 16.484 44.588C15.932 43.748 15.656 42.812 15.656 41.78C15.656 40.484 15.98 39.464 16.628 38.72C17.3 37.976 18.38 37.436 19.868 37.1C21.356 36.764 23.408 36.596 26.024 36.596H26.924V35.768C26.924 34.592 26.672 33.74 26.168 33.212C25.664 32.66 24.848 32.384 23.72 32.384C23.024 32.384 22.316 32.492 21.596 32.708C20.876 32.9 20.024 33.188 19.04 33.572C18.416 33.884 17.96 34.04 17.672 34.04C17.24 34.04 16.88 33.884 16.592 33.572C16.328 33.26 16.196 32.852 16.196 32.348C16.196 31.94 16.292 31.592 16.484 31.304C16.7 30.992 17.048 30.704 17.528 30.44C18.368 29.984 19.364 29.624 20.516 29.36C21.692 29.096 22.844 28.964 23.972 28.964ZM22.856 44.048C24.056 44.048 25.028 43.652 25.772 42.86C26.54 42.044 26.924 41 26.924 39.728V38.972H26.276C24.668 38.972 23.42 39.044 22.532 39.188C21.644 39.332 21.008 39.584 20.624 39.944C20.24 40.304 20.048 40.796 20.048 41.42C20.048 42.188 20.312 42.824 20.84 43.328C21.392 43.808 22.064 44.048 22.856 44.048ZM38.0134 47.216C37.3654 47.216 36.8254 47.036 36.3934 46.676C35.9854 46.292 35.7814 45.752 35.7814 45.056V23.564C35.7814 22.868 35.9854 22.34 36.3934 21.98C36.8254 21.62 37.3654 21.44 38.0134 21.44C38.6614 21.44 39.2014 21.62 39.6334 21.98C40.0654 22.34 40.2814 22.868 40.2814 23.564V45.056C40.2814 45.752 40.0654 46.292 39.6334 46.676C39.2014 47.036 38.6614 47.216 38.0134 47.216ZM47.154 47.216C46.506 47.216 45.966 47.036 45.534 46.676C45.126 46.292 44.922 45.752 44.922 45.056V23.564C44.922 22.868 45.126 22.34 45.534 21.98C45.966 21.62 46.506 21.44 47.154 21.44C47.802 21.44 48.342 21.62 48.774 21.98C49.206 22.34 49.422 22.868 49.422 23.564V45.056C49.422 45.752 49.206 46.292 48.774 46.676C48.342 47.036 47.802 47.216 47.154 47.216Z" fill="white"/>
</svg>
