<svg width="22" height="21" viewBox="0 0 22 21" fill="none" xmlns="http://www.w3.org/2000/svg">
<mask id="path-1-inside-1" fill="white">
<path fill-rule="evenodd" clip-rule="evenodd" d="M2 0C0.895431 0 0 0.89543 0 2V15C0 16.1046 0.89543 17 2 17H12.5714L17.3861 20.7447C18.0429 21.2556 19 20.7875 19 19.9554V17H20C21.1046 17 22 16.1046 22 15V2C22 0.895431 21.1046 0 20 0H2Z"/>
</mask>
<path d="M12.5714 17L13.7993 15.4213L13.2576 15H12.5714V17ZM17.3861 20.7447L18.6139 19.166L18.6139 19.166L17.3861 20.7447ZM19 17V15H17V17H19ZM2 2V2V-2C-0.209139 -2 -2 -0.209139 -2 2H2ZM2 15V2H-2V15H2ZM2 15H2H-2C-2 17.2091 -0.20914 19 2 19V15ZM12.5714 15H2V19H12.5714V15ZM18.6139 19.166L13.7993 15.4213L11.3435 18.5787L16.1582 22.3234L18.6139 19.166ZM17 19.9554C17 19.1232 17.9571 18.6551 18.6139 19.166L16.1582 22.3234C18.1288 23.8561 21 22.4518 21 19.9554H17ZM17 17V19.9554H21V17H17ZM20 15H19V19H20V15ZM20 15V19C22.2091 19 24 17.2091 24 15H20ZM20 2V15H24V2H20ZM20 2H24C24 -0.209138 22.2091 -2 20 -2V2ZM2 2H20V-2H2V2Z" fill="black" mask="url(#path-1-inside-1)"/>
</svg>
