<svg width="56" height="35" viewBox="0 0 56 35" fill="none" xmlns="http://www.w3.org/2000/svg">
<rect width="56" height="35" rx="4" fill="white"/>
<path d="M27.2146 3.31515C25.6186 3.53915 24.3936 3.92415 22.8746 4.68015C20.1376 6.04515 18.0866 8.08215 16.7216 10.7841C13.9986 16.1601 15.0136 22.5511 19.2696 26.8001C24.6736 32.2111 33.3956 32.2111 38.7996 26.8001C39.9756 25.6311 40.8016 24.4551 41.5366 22.9151C42.4046 21.0881 42.7756 19.5131 42.8386 17.4201C42.9086 14.9911 42.4886 13.1011 41.3896 10.8751C40.0176 8.11715 37.9526 6.05215 35.1946 4.68015C33.7526 3.96615 32.8286 3.66515 31.2746 3.37815C30.3996 3.22415 28.1316 3.18215 27.2146 3.31515ZM35.9996 7.87915C35.9996 7.91415 35.8386 8.97115 35.6496 10.2451C35.4606 11.5121 35.2996 12.5621 35.2996 12.5691C35.2996 12.5831 33.7596 12.5901 31.8766 12.5901H28.4536L28.3766 13.0241C28.3346 13.2691 28.2856 13.6051 28.2576 13.7661L28.2086 14.0741L28.7616 14.0111C29.5386 13.9341 30.9876 13.9551 31.4846 14.0531C33.8296 14.5291 35.3346 15.8451 35.9436 17.9591C36.0836 18.4351 36.1046 18.6591 36.0976 19.6951C36.0976 20.6961 36.0696 20.9761 35.9436 21.4451C35.3066 23.7691 33.5636 25.4491 31.1346 26.0861C29.2516 26.5831 26.4306 26.4431 24.3026 25.7501C23.5746 25.5121 22.4896 24.9941 22.4896 24.8821C22.4896 24.7771 23.0496 21.1861 23.0846 21.0741C23.1056 21.0111 23.2526 21.0531 23.5886 21.2281C24.6106 21.7391 26.1996 22.1521 27.4596 22.2291C29.5106 22.3551 30.7776 21.4591 30.7846 19.8701C30.7846 19.0511 30.3506 18.4141 29.5246 18.0221C28.8666 17.7071 28.3976 17.6231 27.1586 17.5811C25.8986 17.5391 25.0936 17.6161 24.1766 17.8541C23.8966 17.9241 23.6516 17.9731 23.6306 17.9591C23.6026 17.9241 25.1216 8.20115 25.1916 7.94915C25.2266 7.83715 25.5486 7.83015 30.6166 7.83015C33.5776 7.83015 35.9996 7.85115 35.9996 7.87915Z" fill="#AA0000"/>
</svg>
