<svg width="56" height="35" viewBox="0 0 56 35" fill="none" xmlns="http://www.w3.org/2000/svg">
<rect width="56" height="35" rx="4" fill="white"/>
<path d="M7.10636 5.10588C7.10186 5.10588 7.10186 5.11495 7.10186 5.12154C7.09328 10.9093 7.09328 16.7325 7.10431 22.5181C7.11085 22.5181 7.11085 22.5251 7.11985 22.5231H11.945C11.947 22.5206 11.9495 22.5181 11.9495 22.5119C11.9495 20.6273 11.9409 18.7782 11.9384 16.894C13.5156 16.8829 15.1148 16.894 16.7006 16.8895V12.1385C15.1255 12.1364 13.5373 12.1471 11.9732 12.1339C11.9797 11.4014 11.9601 10.596 11.9842 9.86764H17.7726C17.668 8.28107 17.5634 6.69451 17.4547 5.11C17.4522 5.10547 17.4502 5.10547 17.4436 5.10547L7.10636 5.10588ZM31.6754 5.13267C31.6648 5.13061 31.6754 5.14834 31.6799 5.14834C33.2722 7.94389 34.88 10.7242 36.4637 13.5268C34.9736 16.1327 33.5076 18.772 32.0195 21.3755C31.8062 21.7485 31.5928 22.1191 31.3922 22.4987C33.161 22.4942 34.9299 22.5074 36.7143 22.5033C37.5092 21.0445 38.2849 19.5639 39.0823 18.108C39.8273 19.4761 40.5765 20.8528 41.3256 22.223C41.3518 22.2691 41.4438 22.4917 41.4936 22.4917H46.942C45.2381 19.4843 43.4913 16.4724 41.7764 13.4583C43.3189 10.7044 44.901 7.94595 46.4454 5.19698C46.4561 5.17925 46.4712 5.15493 46.4671 5.13309H41.1756C40.4939 6.37794 39.829 7.6401 39.1407 8.87753C38.4782 7.62856 37.8227 6.37299 37.1499 5.13309L31.6754 5.13267ZM25.8902 5.36763C25.8081 5.36763 25.7264 5.36928 25.6454 5.3734H25.6344C24.9698 5.3734 24.3556 5.46821 23.8001 5.60712C23.2447 5.74603 22.7351 5.93812 22.2798 6.16318C21.1187 6.73903 20.1578 7.50284 19.3997 8.47811C18.6415 9.45585 18.0424 10.5898 17.7375 12.0371C17.6177 12.6108 17.5352 13.2728 17.5503 13.9435C17.583 15.2984 17.8662 16.4105 18.2974 17.3747C18.9399 18.8137 19.8856 19.9538 21.099 20.817C22.3125 21.6776 23.8112 22.3042 25.8416 22.3042C27.1396 22.3042 28.266 21.9575 29.1983 21.514C29.6666 21.291 30.0896 21.0259 30.4947 20.7349C31.0983 20.3005 31.6386 19.7774 32.0853 19.2036C32.2378 19.0095 32.3796 18.8062 32.519 18.5944C33.3425 17.3454 33.9347 15.8099 33.9347 13.7378C33.9347 13.0737 33.8546 12.4423 33.7152 11.8689C33.4381 10.7411 33.011 9.77448 32.4429 8.96945C31.5802 7.74026 30.5086 6.75634 29.0703 6.09888C28.6065 5.887 28.0862 5.69533 27.5242 5.5692C27.0505 5.46326 26.4641 5.36887 25.8902 5.36763ZM25.7627 8.84909C26.2025 8.84497 26.5548 9.06797 26.7935 9.31405C26.9243 9.44843 27.0354 9.61413 27.1074 9.79509C27.1858 9.99377 27.2165 10.2056 27.2165 10.4793V16.8561C27.2165 17.1364 27.2316 17.4076 27.1793 17.6195C27.0354 18.2151 26.5605 18.65 25.9135 18.7209C25.4125 18.7761 25.0246 18.5597 24.7741 18.3013C24.5799 18.1005 24.4324 17.831 24.3866 17.4958C24.3695 17.3788 24.3756 17.2465 24.3756 17.1096V10.7329C24.3756 10.4571 24.3731 10.19 24.4234 9.98017C24.5215 9.56756 24.761 9.25634 25.0769 9.05354C25.2469 8.94513 25.4407 8.87052 25.6736 8.8528C25.7035 8.85032 25.7333 8.84909 25.7627 8.84909ZM10.1978 23.9382C8.90055 23.9382 7.91191 24.5272 7.39572 25.6179C7.22039 25.9884 7.17625 26.1826 7.14886 26.7011C7.06835 28.2251 7.89311 29.4176 9.28473 29.7869C9.83893 29.934 10.6379 29.9237 11.1684 29.7609C11.6462 29.615 12.361 29.1669 12.3782 29.0025L11.5011 28.0894L11.3454 28.2304C10.7283 28.7885 9.65175 28.7601 9.0955 28.1702C8.45344 27.4893 8.51842 26.1447 9.22302 25.5482C9.81441 25.0474 10.7536 25.0363 11.278 25.5231L11.4374 25.6711L12.3688 24.7419L12.0982 24.5074C11.7185 24.1776 11.1639 23.9876 10.4618 23.946C10.3723 23.9406 10.2844 23.9382 10.1978 23.9382ZM12.9475 23.9402V29.8928H14.3346V27.3825H16.5535V29.8928H17.9406V23.9402H16.5535V26.1636H14.3346V23.9402L12.9475 23.9402ZM20.826 23.9402L18.4282 29.8928H19.9097L20.3188 28.7766H22.574L22.9934 29.8928H24.5395L22.1502 23.9402L20.826 23.9402ZM25.1738 23.9402V29.8928H26.5748L26.614 26.0556L29.0397 29.8928H30.7129C30.7117 29.8928 30.7129 23.9406 30.7129 23.9406H29.3123L29.3152 27.8211L26.8364 23.9406L25.1738 23.9402ZM31.6198 23.9402V29.8928H33.0429L33.083 26.0556L35.547 29.8928H37.2472C37.2456 29.8928 37.2472 23.9406 37.2472 23.9406H35.8241L35.827 27.8211L33.309 23.9406L31.6198 23.9402ZM38.1026 23.9402V29.8928H42.1434V28.6735H39.4493V27.4542H41.8598V26.3067H39.4493V25.1595H42.0012V23.9398L38.1026 23.9402ZM43.0716 23.9402V29.8928H46.6772V28.6735H44.4579V23.9402L43.0716 23.9402ZM21.4836 25.6566L22.2009 27.6253H20.6997L21.4836 25.6566Z" fill="#F24B42"/>
</svg>
