<svg width="56" height="35" viewBox="0 0 56 35" fill="none" xmlns="http://www.w3.org/2000/svg">
<rect width="56" height="35" rx="4" fill="white"/>
<g clip-path="url(#clip0)">
<path d="M27.4989 11.1594C27.0466 10.0311 25.9446 8.81133 23.8829 8.97898C21.2548 9.26445 20.4365 11.7829 20.8334 13.285C19.7867 12.5763 18.0072 12.2646 16.4539 13.5954C14.4484 15.6059 15.5214 18.3247 16.6239 18.9767C15.4095 18.8644 13.4882 19.6854 13.0637 21.8328C12.6119 24.4994 14.6451 26.0536 16.6239 26.0536H38.5732C40.8615 26.0536 42.1321 24.0735 41.9898 22.2066C41.765 19.7688 39.5348 18.8345 38.3186 19.0347C39.3349 18.4683 40.6929 15.804 38.6285 13.7096C36.99 12.1509 34.9011 12.7182 34.167 13.3979C34.5631 12.096 33.9133 9.40492 31.2562 8.97898C31.0727 8.95859 30.8959 8.94727 30.7274 8.94727C28.6987 8.94727 27.7821 10.4303 27.5002 11.1594" fill="white"/>
<path d="M16.8193 14.0184C15.6607 15.0674 15.2388 17.444 17.3277 18.8337L25.6616 24.5513L21.6206 15.2939C20.7733 13.1099 18.4578 12.6332 16.8193 14.0184Z" fill="#F37021"/>
<path d="M23.9937 9.51873C22.6343 9.54592 20.6043 11.159 21.5105 13.6227L25.6897 23.4791L27.1578 13.1116C27.4977 10.5355 25.5483 9.34609 23.9937 9.51828" fill="#CC004C"/>
<path d="M27.8095 12.7167H28.5997C28.5997 12.7167 29.0211 12.7167 29.0791 12.9161C28.7683 13.1698 27.9214 13.2015 28.0338 14.5582L29.3623 23.478L33.5129 13.5953C34.3621 11.3886 32.5795 9.54617 30.999 9.48998C30.9244 9.48411 30.8496 9.48094 30.7747 9.48047C29.3564 9.48047 27.7297 10.5118 27.8095 12.7171" fill="#6460AA"/>
<path d="M33.3473 15.3779L29.4219 24.5242L37.7526 18.7772C39.6729 17.4151 39.3634 15.2374 38.2882 14.1608C37.8373 13.6542 37.0104 13.2627 36.1336 13.2627C35.0982 13.2627 33.9903 13.8119 33.3468 15.3788" fill="#0089D0"/>
<path d="M36.8202 20.0781L28.9961 25.5437H38.6295C40.6061 25.5437 41.8762 23.5055 41.312 21.6355C40.9337 20.4601 39.8149 19.5375 38.5163 19.5361C37.9698 19.5366 37.3898 19.7011 36.8202 20.0785" fill="#0DB14B"/>
<path d="M16.5956 25.5434H26.0868L18.2568 20.0778C16.4443 18.916 14.4156 19.5957 13.682 21.5232C13.0599 23.73 14.6132 25.5425 16.5911 25.5425" fill="#FCB711"/>
</g>
<defs>
<clipPath id="clip0">
<rect width="29" height="29" fill="white" transform="translate(13 3)"/>
</clipPath>
</defs>
</svg>
