<svg width="56" height="35" viewBox="0 0 56 35" fill="none" xmlns="http://www.w3.org/2000/svg">
<rect width="56" height="35" rx="4" fill="white"/>
<g clip-path="url(#clip0)">
<path d="M29.6756 5L29.6671 10.2665L29.6586 15.533L29.2625 14.3104C29.2624 14.31 29.2619 14.3084 29.2618 14.308L28.75 26.0326C29.2532 27.5872 29.5228 28.4171 29.5258 28.4204C29.5298 28.4248 29.8165 28.4437 30.163 28.4625C31.2129 28.5195 32.5139 28.6416 33.5008 28.7758C33.7294 28.8069 33.926 28.8228 33.9379 28.8112C33.9497 28.7996 33.9562 23.4373 33.9522 16.895L33.945 5H31.8103H29.6756V5Z" fill="#B1060F"/>
<path d="M22 5V16.9071C22 23.456 22.0059 28.8206 22.013 28.8284C22.0202 28.8363 22.3909 28.798 22.8368 28.7434C23.2827 28.6887 23.899 28.6208 24.2063 28.5924C24.6777 28.5489 26.0849 28.4499 26.2478 28.4488C26.2952 28.4485 26.2983 28.1809 26.3051 23.4055L26.3124 18.3625L26.6529 19.4164C26.7055 19.5793 26.722 19.6302 26.7733 19.7889L27.2849 8.06713C27.1765 7.7318 27.2333 7.90783 27.1091 7.52353C26.6911 6.23042 26.3363 5.13362 26.3208 5.08621L26.2925 5H24.1463H22Z" fill="#B1060F"/>
<path d="M22 5L22 11.6838L26.3037 24.1735C26.3042 23.8873 26.3047 23.7326 26.3051 23.4055L26.3124 18.3625L26.6529 19.4164C28.5482 25.2837 29.5665 28.4296 29.5724 28.4361C29.5764 28.4404 29.8632 28.4594 30.2097 28.4782C31.2596 28.5352 32.5606 28.6573 33.5475 28.7915C33.776 28.8225 33.9727 28.8384 33.9845 28.8268C33.9926 28.8189 33.998 26.1896 33.9994 22.4805L29.7158 9.00718L29.7137 10.2822L29.7052 15.5487L29.3092 14.3261C28.9222 13.1315 28.6638 12.3326 27.1091 7.52353C26.6911 6.23042 26.3363 5.13362 26.3208 5.08621L26.2925 5H24.1463H22Z" fill="url(#paint0_radial)"/>
<path d="M26.3123 18.3685V18.3625L26.6528 19.4164C28.5481 25.2837 29.5664 28.4296 29.5724 28.4361C29.5763 28.4404 29.8631 28.4594 30.2096 28.4782C31.2595 28.5352 32.5605 28.6573 33.5474 28.7915C33.7747 28.8224 33.9114 28.8322 33.9251 28.8209L29.7051 15.5462V15.5487L29.3091 14.3261C28.9221 13.1315 28.6637 12.3326 27.109 7.52353C26.691 6.23042 26.3362 5.13362 26.3207 5.08621L26.2924 5H24.1462H22L26.3123 18.3685Z" fill="#E50914"/>
<path d="M29.6671 10.2665L29.6586 15.533L29.2625 14.3104C29.2624 14.31 29.2619 14.3084 29.2618 14.308L28.75 26.0326C29.2532 27.5872 29.5228 28.4171 29.5258 28.4204C29.5298 28.4248 29.8165 28.4437 30.163 28.4625C31.2129 28.5195 32.5139 28.6416 33.5008 28.7758C33.7294 28.8069 33.926 28.8228 33.9379 28.8112C33.9497 28.7996 33.9562 23.4373 33.9522 16.895L33.945 5H31.8103H29.6756L29.6671 10.2665Z" fill="#B1060F"/>
<path d="M22 5V16.9071C22 23.456 22.0059 28.8206 22.013 28.8284C22.0202 28.8363 22.3909 28.798 22.8368 28.7434C23.2827 28.6887 23.899 28.6208 24.2063 28.5924C24.6777 28.5489 26.0849 28.4499 26.2478 28.4488C26.2952 28.4485 26.2983 28.1809 26.3051 23.4055L26.3124 18.3625L26.6529 19.4164C26.7055 19.5793 26.722 19.6302 26.7733 19.7889L27.2849 8.06713C27.1765 7.7318 27.2333 7.90783 27.1091 7.52353C26.6911 6.23042 26.3363 5.13362 26.3208 5.08621L26.2925 5H24.1463H22Z" fill="#B1060F"/>
<path d="M22 11.6838L26.3037 24.1735C26.3042 23.8873 26.3047 23.7326 26.3051 23.4055L26.3124 18.3625L26.6529 19.4164C28.5482 25.2837 29.5665 28.4296 29.5724 28.4361C29.5764 28.4404 29.8632 28.4594 30.2097 28.4782C31.2596 28.5352 32.5606 28.6573 33.5475 28.7915C33.776 28.8225 33.8539 28.8197 33.8658 28.8081C33.8739 28.8001 33.998 26.1896 33.9994 22.4805L29.7158 9.00718L29.7137 10.2822L29.7052 15.5487L29.3092 14.3261C28.9222 13.1315 28.6638 12.3326 27.1091 7.52353C26.6911 6.23042 26.3363 5.13362 26.3208 5.08621L26.2925 5H24.1463H22L22 11.6838Z" fill="url(#paint1_radial)"/>
<path d="M26.3123 18.3685V18.3625L26.6528 19.4164C28.5481 25.2837 29.494 28.436 29.5 28.4426C29.504 28.4469 29.8631 28.4594 30.2096 28.4782C31.2595 28.5352 32.5605 28.6573 33.5474 28.7915C33.7747 28.8224 33.9114 28.8322 33.9251 28.8209L29.7051 15.5462V15.5487L29.3091 14.3261C28.9221 13.1315 28.6637 12.3326 27.109 7.52353C26.691 6.23042 26.3362 5.13362 26.3207 5.08621L26.2924 5H24.1462H22L26.3123 18.3685Z" fill="#E50914"/>
</g>
<defs>
<radialGradient id="paint0_radial" cx="0" cy="0" r="1" gradientUnits="userSpaceOnUse" gradientTransform="translate(31.2702 9.93727) rotate(-11.1386) scale(2.61936 2.95348)">
<stop/>
<stop offset="1" stop-opacity="0"/>
</radialGradient>
<radialGradient id="paint1_radial" cx="0" cy="0" r="1" gradientUnits="userSpaceOnUse" gradientTransform="translate(31.2662 9.93749) rotate(-11.1386) scale(2.61936 2.95305)">
<stop/>
<stop offset="1" stop-opacity="0"/>
</radialGradient>
<clipPath id="clip0">
<rect width="12" height="24" fill="white" transform="translate(22 5)"/>
</clipPath>
</defs>
</svg>
