<svg width="56" height="35" viewBox="0 0 56 35" fill="none" xmlns="http://www.w3.org/2000/svg">
<rect width="56" height="35" rx="4" fill="white"/>
<path fill-rule="evenodd" clip-rule="evenodd" d="M8 12V22.2667L18.7022 12H8Z" fill="#92CFAE"/>
<path fill-rule="evenodd" clip-rule="evenodd" d="M8.76367 23.0001H19.4659V12.7334L8.76367 23.0001Z" fill="#2A8288"/>
<path fill-rule="evenodd" clip-rule="evenodd" d="M25.4778 17.2616C26.7222 17.2616 27.3837 16.677 27.3837 15.5847V15.523C27.3837 14.3539 26.6906 13.8924 25.4778 13.8924H24.1862V17.2616H25.4778ZM21.6504 12H25.5408C28.2814 12 29.8409 13.1845 29.8409 15.5078V15.5692C29.8409 17.8923 28.1871 19.0001 25.6195 19.0001H24.1862V23H21.6504V12Z" fill="black"/>
<path fill-rule="evenodd" clip-rule="evenodd" d="M34.8898 21.1076C36.1106 21.1076 36.7289 20.5846 36.7289 19.5845V19.5231C36.7289 18.5384 36.1106 18 34.828 18H33.4062V21.1076H34.8898ZM34.9825 23H30.9336V12H38.1351V13.9385H33.4217L33.4062 16.2461H35.0597C37.6097 16.2461 39.1241 17.3385 39.1241 19.5383V19.6C39.1241 21.7537 37.7178 23 34.9825 23Z" fill="black"/>
<path fill-rule="evenodd" clip-rule="evenodd" d="M40.9668 12.0154H43.6294V16.7473L47.7383 12H50.5653L45.9139 17.2081L50.7954 23H47.689L43.6294 18.0684V23H40.9668V12.0154Z" fill="black"/>
</svg>
